<svg xmlns="http://www.w3.org/2000/svg" xmlns:xlink="http://www.w3.org/1999/xlink" width="60" zoomAndPan="magnify" viewBox="0 0 45 44.999999" height="60" preserveAspectRatio="xMidYMid meet" version="1.0"><defs><clipPath id="f92ee4209a"><path d="M 2.25 3.820312 L 42.75 3.820312 L 42.75 41.320312 L 2.25 41.320312 Z M 2.25 3.820312 " clip-rule="nonzero"/></clipPath></defs><rect x="-4.5" width="54" fill="#ffffff" y="-4.5" height="53.999999" fill-opacity="1"/><rect x="-4.5" width="54" fill="#ffffff" y="-4.5" height="53.999999" fill-opacity="1"/><rect x="-4.5" width="54" fill="#f4f6f8" y="-4.5" height="53.999999" fill-opacity="1"/><g clip-path="url(#f92ee4209a)"><path fill="#042b3b" d="M 42.71875 23.875 C 42.71875 23.800781 42.71875 23.730469 42.695312 23.65625 C 42.695312 23.632812 42.695312 23.632812 42.671875 23.609375 C 42.671875 23.585938 42.648438 23.585938 42.648438 23.558594 C 42.648438 23.535156 42.625 23.535156 42.625 23.511719 C 42.625 23.488281 42.601562 23.488281 42.601562 23.464844 C 42.601562 23.464844 42.574219 23.4375 42.574219 23.4375 C 42.550781 23.4375 42.550781 23.414062 42.527344 23.414062 C 42.503906 23.414062 42.503906 23.390625 42.480469 23.390625 C 42.457031 23.390625 42.457031 23.367188 42.429688 23.367188 C 42.40625 23.34375 42.382812 23.34375 42.335938 23.34375 L 33.261719 21.121094 C 33.234375 21.121094 33.210938 21.121094 33.1875 21.121094 C 33.1875 21.121094 33.164062 21.121094 33.164062 21.121094 C 33.140625 21.121094 33.117188 21.121094 33.089844 21.121094 C 33.089844 21.121094 33.066406 21.121094 33.066406 21.121094 C 33.066406 21.121094 33.066406 21.121094 33.042969 21.121094 L 20.40625 23.703125 C 20.40625 23.703125 20.382812 23.703125 20.382812 23.703125 C 20.359375 23.703125 20.332031 23.730469 20.308594 23.730469 C 20.308594 23.730469 20.285156 23.730469 20.285156 23.753906 C 20.261719 23.753906 20.238281 23.777344 20.238281 23.800781 C 20.238281 23.800781 20.238281 23.800781 20.214844 23.824219 C 20.1875 23.851562 20.1875 23.851562 20.164062 23.875 C 20.164062 23.875 20.140625 23.898438 20.140625 23.898438 C 20.117188 23.921875 20.117188 23.921875 20.117188 23.945312 C 20.117188 23.945312 20.09375 23.972656 20.09375 23.972656 C 20.09375 23.996094 20.070312 24.019531 20.070312 24.042969 C 20.070312 24.042969 20.070312 24.066406 20.070312 24.066406 C 20.070312 24.089844 20.070312 24.117188 20.070312 24.164062 C 20.070312 24.164062 20.070312 24.164062 20.070312 24.1875 L 19.875 36.558594 C 19.875 36.777344 20.019531 36.96875 20.214844 37.019531 L 28.347656 39.605469 C 28.347656 39.605469 28.347656 39.605469 28.375 39.605469 C 28.421875 39.628906 28.46875 39.628906 28.519531 39.628906 C 28.542969 39.628906 28.589844 39.628906 28.613281 39.628906 L 42.335938 36.582031 C 42.550781 36.535156 42.71875 36.34375 42.71875 36.101562 L 42.71875 23.921875 C 42.71875 23.921875 42.71875 23.898438 42.71875 23.875 Z M 28.542969 25.613281 L 22.742188 24.210938 L 33.140625 22.109375 L 39.832031 23.753906 Z M 20.984375 24.792969 L 28.035156 26.484375 L 28.035156 38.46875 L 20.839844 36.195312 Z M 41.757812 35.691406 L 29 38.515625 L 29 26.507812 L 41.757812 24.40625 Z M 16.988281 22.785156 L 19.613281 20.296875 C 21.417969 18.582031 23.222656 16.867188 25.027344 15.152344 L 25.414062 14.789062 C 27.3125 12.976562 29.214844 11.164062 31.117188 9.351562 L 31.261719 9.207031 C 31.527344 8.964844 31.769531 8.722656 32.03125 8.457031 C 33.1875 7.324219 34.296875 6.234375 35.714844 5.605469 C 36.917969 5.101562 38.074219 4.835938 39.15625 4.808594 C 39.183594 4.808594 39.230469 4.835938 39.253906 4.859375 C 39.277344 4.882812 39.300781 4.929688 39.300781 4.953125 C 39.253906 6.066406 38.964844 7.203125 38.410156 8.386719 C 37.738281 9.835938 30.78125 17.15625 28.15625 19.863281 C 27.964844 20.054688 27.964844 20.371094 28.15625 20.539062 C 28.347656 20.734375 28.664062 20.734375 28.832031 20.539062 C 29.816406 19.523438 38.410156 10.65625 39.277344 8.796875 C 39.878906 7.492188 40.21875 6.210938 40.265625 4.980469 C 40.265625 4.6875 40.167969 4.375 39.953125 4.15625 C 39.734375 3.941406 39.46875 3.820312 39.15625 3.820312 C 37.929688 3.84375 36.652344 4.132812 35.332031 4.6875 C 33.71875 5.390625 32.515625 6.574219 31.359375 7.734375 C 31.117188 7.976562 30.851562 8.21875 30.613281 8.457031 L 30.46875 8.605469 C 29.09375 9.910156 27.746094 11.1875 26.375 12.492188 L 6.492188 8.386719 C 6.324219 8.335938 6.132812 8.410156 6.011719 8.554688 C 5.890625 8.699219 5.867188 8.894531 5.9375 9.0625 L 7.769531 13.21875 C 7.816406 13.339844 7.914062 13.410156 8.03125 13.460938 L 9.574219 14.113281 C 9.355469 14.5 9.308594 14.980469 9.429688 15.417969 C 9.550781 15.925781 9.910156 16.359375 10.367188 16.601562 C 10.609375 16.722656 10.875 16.792969 11.164062 16.792969 C 11.1875 16.792969 11.1875 16.792969 11.210938 16.792969 C 11.859375 16.792969 12.4375 16.457031 12.773438 15.902344 L 12.992188 15.539062 L 15.207031 16.480469 L 17.421875 19.164062 C 17.515625 19.285156 17.660156 19.332031 17.78125 19.332031 C 17.878906 19.332031 18 19.285156 18.09375 19.210938 C 18.3125 19.042969 18.335938 18.726562 18.167969 18.535156 L 16.191406 16.140625 L 17.949219 14.691406 C 18.167969 14.523438 18.191406 14.210938 18.023438 14.015625 C 17.855469 13.796875 17.542969 13.773438 17.347656 13.945312 L 15.445312 15.515625 L 10.535156 13.4375 C 10.535156 13.4375 10.511719 13.4375 10.511719 13.4375 L 8.609375 12.636719 L 7.238281 9.523438 L 25.53125 13.363281 C 25.269531 13.605469 25.027344 13.847656 24.761719 14.089844 L 24.378906 14.449219 C 22.570312 16.167969 20.765625 17.882812 18.960938 19.597656 L 16.335938 22.085938 C 15.300781 23.078125 14.339844 24.117188 13.472656 25.226562 C 13.402344 25.203125 13.351562 25.179688 13.28125 25.179688 L 4.710938 25.324219 C 4.589844 25.324219 4.46875 25.371094 4.375 25.46875 L 2.449219 27.472656 C 2.328125 27.59375 2.28125 27.765625 2.328125 27.933594 C 2.375 28.101562 2.472656 28.222656 2.640625 28.273438 L 8.660156 30.351562 C 8.707031 30.375 8.753906 30.375 8.804688 30.375 C 8.996094 30.375 9.1875 30.253906 9.261719 30.035156 C 9.355469 29.792969 9.210938 29.503906 8.972656 29.429688 L 3.675781 27.621094 L 4.953125 26.316406 L 12.773438 26.195312 C 11.425781 28.03125 10.296875 29.988281 9.382812 32.089844 C 9.164062 32.597656 9.210938 33.175781 9.550781 33.613281 C 9.550781 33.636719 9.574219 33.636719 9.574219 33.660156 C 9.597656 33.707031 9.644531 33.730469 9.667969 33.78125 C 9.71875 33.828125 9.765625 33.878906 9.8125 33.902344 C 9.839844 33.902344 9.839844 33.925781 9.863281 33.925781 C 10.128906 34.144531 10.464844 34.238281 10.800781 34.238281 C 10.992188 34.238281 11.1875 34.191406 11.378906 34.117188 C 13.496094 33.273438 15.496094 32.1875 17.347656 30.882812 L 16.988281 38.734375 L 15.640625 39.964844 L 13.980469 34.601562 C 13.90625 34.335938 13.617188 34.214844 13.375 34.289062 C 13.113281 34.359375 12.992188 34.625 13.0625 34.890625 L 14.964844 40.980469 C 15.015625 41.148438 15.132812 41.269531 15.300781 41.296875 C 15.351562 41.296875 15.375 41.320312 15.421875 41.320312 C 15.542969 41.320312 15.664062 41.269531 15.761719 41.199219 L 17.804688 39.3125 C 17.902344 39.21875 17.949219 39.097656 17.949219 38.976562 L 18.335938 30.398438 C 18.335938 30.324219 18.335938 30.253906 18.289062 30.179688 C 18.601562 29.964844 18.890625 29.722656 19.179688 29.480469 C 19.394531 29.3125 19.417969 28.996094 19.25 28.804688 C 19.082031 28.585938 18.769531 28.5625 18.578125 28.730469 C 16.289062 30.589844 13.738281 32.113281 10.992188 33.226562 C 10.753906 33.320312 10.558594 33.25 10.414062 33.152344 L 10.320312 33.03125 C 10.222656 32.886719 10.152344 32.695312 10.246094 32.453125 C 11.835938 28.777344 14.097656 25.542969 16.988281 22.785156 Z M 11.957031 15.394531 C 11.789062 15.660156 11.5 15.828125 11.1875 15.804688 C 11.066406 15.804688 10.921875 15.78125 10.824219 15.707031 C 10.609375 15.585938 10.441406 15.394531 10.367188 15.152344 C 10.320312 14.910156 10.34375 14.667969 10.488281 14.476562 L 12.101562 15.152344 Z M 8.492188 34.890625 C 8.683594 35.085938 8.683594 35.398438 8.492188 35.570312 L 5.746094 38.25 C 5.648438 38.347656 5.53125 38.394531 5.410156 38.394531 C 5.289062 38.394531 5.167969 38.347656 5.070312 38.25 C 4.878906 38.058594 4.878906 37.742188 5.070312 37.574219 L 7.816406 34.890625 C 8.007812 34.699219 8.320312 34.699219 8.492188 34.890625 Z M 5.746094 33.78125 C 5.625 33.78125 5.503906 33.730469 5.410156 33.636719 C 5.214844 33.441406 5.214844 33.128906 5.410156 32.960938 L 6.613281 31.773438 C 6.804688 31.582031 7.117188 31.582031 7.285156 31.773438 C 7.480469 31.96875 7.480469 32.28125 7.285156 32.453125 L 6.082031 33.636719 C 6.011719 33.730469 5.867188 33.78125 5.746094 33.78125 Z M 11.570312 36.171875 C 11.765625 36.367188 11.765625 36.679688 11.570312 36.847656 L 10.488281 37.914062 C 10.390625 38.007812 10.273438 38.058594 10.152344 38.058594 C 10.03125 38.058594 9.910156 38.007812 9.8125 37.914062 C 9.621094 37.71875 9.621094 37.40625 9.8125 37.234375 L 10.898438 36.171875 C 11.089844 35.980469 11.378906 36.003906 11.570312 36.171875 Z M 11.570312 36.171875 " fill-opacity="1" fill-rule="nonzero"/></g></svg>