<svg xmlns="http://www.w3.org/2000/svg" xmlns:xlink="http://www.w3.org/1999/xlink" width="60" zoomAndPan="magnify" viewBox="0 0 45 44.999999" height="60" preserveAspectRatio="xMidYMid meet" version="1.0"><defs><clipPath id="7cbd493909"><path d="M 4.9375 3.589844 L 28 3.589844 L 28 37 L 4.9375 37 Z M 4.9375 3.589844 " clip-rule="nonzero"/></clipPath><clipPath id="c53a13fd06"><path d="M 34 31 L 40.1875 31 L 40.1875 41.089844 L 34 41.089844 Z M 34 31 " clip-rule="nonzero"/></clipPath><clipPath id="03869a4a81"><path d="M 19 31 L 26 31 L 26 41.089844 L 19 41.089844 Z M 19 31 " clip-rule="nonzero"/></clipPath><clipPath id="02b6dc2478"><path d="M 25 31 L 35 31 L 35 41.089844 L 25 41.089844 Z M 25 31 " clip-rule="nonzero"/></clipPath></defs><rect x="-4.5" width="54" fill="#ffffff" y="-4.5" height="53.999999" fill-opacity="1"/><rect x="-4.5" width="54" fill="#ffffff" y="-4.5" height="53.999999" fill-opacity="1"/><g clip-path="url(#7cbd493909)"><path fill="#042b3b" d="M 18.496094 36.402344 L 5.617188 36.402344 C 5.246094 36.402344 4.941406 36.101562 4.941406 35.734375 L 4.941406 4.257812 C 4.941406 3.890625 5.246094 3.589844 5.617188 3.589844 L 27.304688 3.589844 C 27.679688 3.589844 27.984375 3.890625 27.984375 4.257812 L 27.984375 16.3125 C 27.984375 16.683594 27.679688 16.984375 27.304688 16.984375 C 26.933594 16.984375 26.628906 16.683594 26.628906 16.3125 L 26.628906 4.929688 L 6.296875 4.929688 L 6.296875 35.0625 L 18.496094 35.0625 C 18.867188 35.0625 19.171875 35.363281 19.171875 35.734375 C 19.171875 36.101562 18.867188 36.402344 18.496094 36.402344 " fill-opacity="1" fill-rule="nonzero"/></g><g clip-path="url(#c53a13fd06)"><path fill="#042b3b" d="M 39.507812 41.089844 C 39.132812 41.089844 38.828125 40.789062 38.828125 40.421875 C 38.828125 33.808594 36.816406 33.4375 34.683594 33.042969 L 34.925781 31.726562 L 34.800781 32.382812 L 34.933594 31.726562 C 37.808594 32.257812 40.183594 33.277344 40.183594 40.421875 C 40.183594 40.789062 39.878906 41.089844 39.507812 41.089844 " fill-opacity="1" fill-rule="nonzero"/></g><g clip-path="url(#03869a4a81)"><path fill="#042b3b" d="M 20.527344 41.089844 C 20.15625 41.089844 19.851562 40.789062 19.851562 40.421875 C 19.851562 33.285156 22.246094 32.265625 25.132812 31.730469 C 25.503906 31.664062 25.863281 31.902344 25.933594 32.265625 C 26 32.625 25.765625 32.976562 25.398438 33.042969 L 25.382812 33.046875 C 23.328125 33.425781 21.207031 33.816406 21.207031 40.421875 C 21.207031 40.789062 20.902344 41.089844 20.527344 41.089844 " fill-opacity="1" fill-rule="nonzero"/></g><path fill="#042b3b" d="M 30.011719 32.382812 C 27.226562 32.382812 25.367188 30.234375 25.273438 26.90625 L 25.273438 25.019531 C 25.273438 24.648438 25.578125 24.347656 25.949219 24.347656 C 26.324219 24.347656 26.628906 24.648438 26.628906 25.019531 L 26.628906 26.886719 C 26.65625 27.847656 26.980469 31.046875 30.011719 31.046875 C 32.515625 31.046875 33.40625 28.773438 33.40625 26.644531 L 33.40625 25.019531 C 33.40625 24.648438 33.710938 24.347656 34.085938 24.347656 C 34.457031 24.347656 34.761719 24.648438 34.761719 25.019531 L 34.761719 26.644531 C 34.761719 30.132812 32.894531 32.382812 30.011719 32.382812 " fill-opacity="1" fill-rule="nonzero"/><path fill="#042b3b" d="M 31.375 37.070312 C 31.125 37.070312 30.886719 36.9375 30.765625 36.703125 L 29.410156 34.023438 C 29.3125 33.824219 29.316406 33.585938 29.425781 33.394531 C 29.539062 33.199219 29.738281 33.074219 29.964844 33.058594 L 30.191406 33.039062 C 30.351562 33.027344 30.484375 32.90625 30.511719 32.75 L 30.707031 31.605469 C 30.765625 31.238281 31.117188 30.992188 31.484375 31.054688 C 31.855469 31.117188 32.105469 31.460938 32.039062 31.824219 L 31.847656 32.96875 C 31.761719 33.488281 31.4375 33.921875 31 34.164062 L 31.980469 36.101562 C 32.144531 36.433594 32.011719 36.835938 31.675781 37 C 31.578125 37.046875 31.476562 37.070312 31.375 37.070312 " fill-opacity="1" fill-rule="nonzero"/><path fill="#042b3b" d="M 28.664062 37.070312 C 28.558594 37.070312 28.457031 37.046875 28.359375 37 C 28.023438 36.835938 27.890625 36.433594 28.054688 36.101562 L 29.035156 34.164062 C 28.597656 33.921875 28.277344 33.488281 28.1875 32.96875 L 27.996094 31.824219 C 27.929688 31.460938 28.179688 31.117188 28.550781 31.054688 C 28.917969 30.992188 29.269531 31.238281 29.328125 31.605469 L 29.523438 32.75 C 29.550781 32.90625 29.683594 33.027344 29.84375 33.039062 L 30.070312 33.058594 C 30.296875 33.074219 30.496094 33.199219 30.609375 33.394531 C 30.71875 33.585938 30.726562 33.824219 30.625 34.023438 L 29.269531 36.703125 C 29.148438 36.9375 28.910156 37.070312 28.664062 37.070312 " fill-opacity="1" fill-rule="nonzero"/><path fill="#042b3b" d="M 30.03125 34.902344 C 29.792969 34.902344 29.5625 34.800781 29.441406 34.601562 C 29.34375 34.449219 29.304688 34.246094 29.347656 34.070312 C 29.394531 33.894531 29.492188 33.726562 29.652344 33.636719 C 29.863281 33.515625 30.148438 33.5 30.359375 33.621094 L 30.382812 33.636719 C 30.542969 33.726562 30.652344 33.875 30.699219 34.050781 C 30.742188 34.222656 30.714844 34.410156 30.621094 34.5625 C 30.496094 34.761719 30.265625 34.902344 30.03125 34.902344 " fill-opacity="1" fill-rule="nonzero"/><path fill="#042b3b" d="M 34.804688 33.050781 C 34.757812 33.050781 34.71875 33.046875 34.671875 33.039062 L 31.308594 32.371094 C 30.9375 32.296875 30.699219 31.945312 30.773438 31.585938 C 30.847656 31.21875 31.207031 30.984375 31.570312 31.058594 L 34.9375 31.726562 C 35.304688 31.796875 35.542969 32.152344 35.46875 32.511719 C 35.40625 32.832031 35.121094 33.050781 34.804688 33.050781 " fill-opacity="1" fill-rule="nonzero"/><path fill="#042b3b" d="M 25.273438 33.050781 C 24.957031 33.050781 24.671875 32.828125 24.609375 32.511719 C 24.535156 32.148438 24.773438 31.796875 25.140625 31.726562 L 28.53125 31.058594 C 28.902344 30.980469 29.253906 31.222656 29.328125 31.585938 C 29.402344 31.949219 29.164062 32.296875 28.792969 32.371094 L 25.40625 33.039062 C 25.359375 33.046875 25.316406 33.050781 25.273438 33.050781 " fill-opacity="1" fill-rule="nonzero"/><g clip-path="url(#02b6dc2478)"><path fill="#042b3b" d="M 30.019531 41.089844 C 30.019531 41.089844 30.015625 41.089844 30.015625 41.089844 C 29.742188 41.089844 29.496094 40.925781 29.394531 40.679688 L 26.003906 32.644531 C 25.859375 32.300781 26.023438 31.910156 26.367188 31.765625 C 26.714844 31.625 27.109375 31.785156 27.253906 32.125 L 30.023438 38.691406 L 32.832031 32.121094 C 32.976562 31.78125 33.378906 31.625 33.722656 31.765625 C 34.066406 31.910156 34.226562 32.304688 34.078125 32.644531 L 30.640625 40.683594 C 30.535156 40.929688 30.289062 41.089844 30.019531 41.089844 " fill-opacity="1" fill-rule="nonzero"/></g><path fill="#042b3b" d="M 36.816406 37.070312 C 36.441406 37.070312 36.140625 36.769531 36.140625 36.402344 L 36.140625 33.054688 C 36.140625 32.683594 36.441406 32.382812 36.816406 32.382812 C 37.191406 32.382812 37.496094 32.683594 37.496094 33.054688 L 37.496094 36.402344 C 37.496094 36.769531 37.191406 37.070312 36.816406 37.070312 " fill-opacity="1" fill-rule="nonzero"/><path fill="#042b3b" d="M 23.238281 37.070312 C 22.867188 37.070312 22.5625 36.769531 22.5625 36.402344 L 22.5625 33.054688 C 22.5625 32.683594 22.867188 32.382812 23.238281 32.382812 C 23.613281 32.382812 23.917969 32.683594 23.917969 33.054688 L 23.917969 36.402344 C 23.917969 36.769531 23.613281 37.070312 23.238281 37.070312 " fill-opacity="1" fill-rule="nonzero"/><path fill="#042b3b" d="M 26.347656 24.238281 C 27.09375 24.472656 28.9375 25.019531 30.019531 25.019531 C 31.011719 25.019531 32.839844 24.507812 33.796875 24.203125 L 33.914062 23.679688 L 30.066406 23.679688 C 30.035156 23.679688 30 23.679688 29.96875 23.679688 L 26.179688 23.679688 Z M 30.019531 26.359375 C 28.421875 26.359375 25.695312 25.441406 25.578125 25.398438 C 25.371094 25.328125 25.210938 25.164062 25.148438 24.957031 L 24.621094 23.199219 C 24.5625 22.996094 24.601562 22.78125 24.730469 22.609375 C 24.859375 22.4375 25.058594 22.339844 25.273438 22.339844 L 29.96875 22.339844 C 30 22.339844 30.035156 22.339844 30.066406 22.339844 L 34.761719 22.339844 C 34.96875 22.339844 35.160156 22.429688 35.292969 22.589844 C 35.417969 22.75 35.46875 22.957031 35.425781 23.15625 L 35.035156 24.871094 C 34.984375 25.097656 34.816406 25.28125 34.59375 25.355469 C 34.472656 25.398438 31.617188 26.359375 30.019531 26.359375 " fill-opacity="1" fill-rule="nonzero"/><path fill="#042b3b" d="M 34.761719 23.679688 C 34.660156 23.679688 34.554688 23.65625 34.457031 23.609375 C 34.125 23.445312 33.988281 23.039062 34.15625 22.707031 L 35.203125 20.640625 C 33.804688 20.007812 31.300781 18.992188 30.019531 18.992188 C 28.734375 18.992188 26.230469 20.007812 24.832031 20.640625 L 25.878906 22.707031 C 26.046875 23.039062 25.910156 23.445312 25.578125 23.609375 C 25.242188 23.773438 24.832031 23.640625 24.667969 23.308594 L 23.3125 20.632812 C 23.230469 20.472656 23.21875 20.285156 23.273438 20.117188 C 23.332031 19.949219 23.457031 19.808594 23.617188 19.730469 C 23.789062 19.644531 27.890625 17.652344 30.019531 17.652344 C 32.144531 17.652344 36.246094 19.644531 36.417969 19.730469 C 36.578125 19.808594 36.703125 19.949219 36.761719 20.117188 C 36.816406 20.285156 36.804688 20.472656 36.722656 20.632812 L 35.367188 23.308594 C 35.25 23.542969 35.011719 23.679688 34.761719 23.679688 " fill-opacity="1" fill-rule="nonzero"/><path fill="#042b3b" d="M 31.035156 21 C 31.035156 20.445312 30.578125 19.996094 30.019531 19.996094 C 29.457031 19.996094 29 20.445312 29 21 C 29 21.554688 29.457031 22.003906 30.019531 22.003906 C 30.578125 22.003906 31.035156 21.554688 31.035156 21 " fill-opacity="1" fill-rule="nonzero"/><path fill="#042b3b" d="M 9.683594 31.714844 L 13.75 31.714844 L 13.75 27.695312 L 9.683594 27.695312 Z M 14.429688 33.054688 L 9.007812 33.054688 C 8.632812 33.054688 8.328125 32.753906 8.328125 32.382812 L 8.328125 27.027344 C 8.328125 26.660156 8.632812 26.359375 9.007812 26.359375 L 14.429688 26.359375 C 14.800781 26.359375 15.105469 26.660156 15.105469 27.027344 L 15.105469 32.382812 C 15.105469 32.753906 14.800781 33.054688 14.429688 33.054688 " fill-opacity="1" fill-rule="nonzero"/><path fill="#042b3b" d="M 20.527344 31.714844 L 17.140625 31.714844 C 16.765625 31.714844 16.460938 31.414062 16.460938 31.046875 C 16.460938 30.675781 16.765625 30.375 17.140625 30.375 L 20.527344 30.375 C 20.902344 30.375 21.207031 30.675781 21.207031 31.046875 C 21.207031 31.414062 20.902344 31.714844 20.527344 31.714844 " fill-opacity="1" fill-rule="nonzero"/><path fill="#042b3b" d="M 22.5625 29.035156 L 17.140625 29.035156 C 16.765625 29.035156 16.460938 28.734375 16.460938 28.367188 C 16.460938 27.996094 16.765625 27.695312 17.140625 27.695312 L 22.5625 27.695312 C 22.933594 27.695312 23.238281 27.996094 23.238281 28.367188 C 23.238281 28.734375 22.933594 29.035156 22.5625 29.035156 " fill-opacity="1" fill-rule="nonzero"/><path fill="#042b3b" d="M 14.429688 23.679688 L 9.007812 23.679688 C 8.632812 23.679688 8.328125 23.378906 8.328125 23.007812 L 8.328125 17.652344 C 8.328125 17.285156 8.632812 16.984375 9.007812 16.984375 L 11.039062 16.984375 C 11.414062 16.984375 11.71875 17.285156 11.71875 17.652344 C 11.71875 18.019531 11.414062 18.320312 11.039062 18.320312 L 9.683594 18.320312 L 9.683594 22.339844 L 13.75 22.339844 L 13.75 21.671875 C 13.75 21.300781 14.054688 21 14.429688 21 C 14.800781 21 15.105469 21.300781 15.105469 21.671875 L 15.105469 23.007812 C 15.105469 23.378906 14.800781 23.679688 14.429688 23.679688 " fill-opacity="1" fill-rule="nonzero"/><path fill="#042b3b" d="M 20.527344 22.339844 L 17.140625 22.339844 C 16.765625 22.339844 16.460938 22.039062 16.460938 21.671875 C 16.460938 21.300781 16.765625 21 17.140625 21 L 20.527344 21 C 20.902344 21 21.207031 21.300781 21.207031 21.671875 C 21.207031 22.039062 20.902344 22.339844 20.527344 22.339844 " fill-opacity="1" fill-rule="nonzero"/><path fill="#042b3b" d="M 21.207031 19.660156 L 17.140625 19.660156 C 16.765625 19.660156 16.460938 19.359375 16.460938 18.992188 C 16.460938 18.621094 16.765625 18.320312 17.140625 18.320312 L 21.207031 18.320312 C 21.578125 18.320312 21.882812 18.621094 21.882812 18.992188 C 21.882812 19.359375 21.578125 19.660156 21.207031 19.660156 " fill-opacity="1" fill-rule="nonzero"/><path fill="#042b3b" d="M 14.429688 14.304688 L 9.007812 14.304688 C 8.632812 14.304688 8.328125 14.003906 8.328125 13.632812 L 8.328125 8.277344 C 8.328125 7.910156 8.632812 7.609375 9.007812 7.609375 L 11.039062 7.609375 C 11.414062 7.609375 11.71875 7.910156 11.71875 8.277344 C 11.71875 8.644531 11.414062 8.945312 11.039062 8.945312 L 9.683594 8.945312 L 9.683594 12.964844 L 13.75 12.964844 L 13.75 12.296875 C 13.75 11.925781 14.054688 11.625 14.429688 11.625 C 14.800781 11.625 15.105469 11.925781 15.105469 12.296875 L 15.105469 13.632812 C 15.105469 14.003906 14.800781 14.304688 14.429688 14.304688 " fill-opacity="1" fill-rule="nonzero"/><path fill="#042b3b" d="M 23.917969 12.964844 L 17.140625 12.964844 C 16.765625 12.964844 16.460938 12.664062 16.460938 12.296875 C 16.460938 11.925781 16.765625 11.625 17.140625 11.625 L 23.917969 11.625 C 24.292969 11.625 24.59375 11.925781 24.59375 12.296875 C 24.59375 12.664062 24.292969 12.964844 23.917969 12.964844 " fill-opacity="1" fill-rule="nonzero"/><path fill="#042b3b" d="M 23.917969 10.285156 L 17.140625 10.285156 C 16.765625 10.285156 16.460938 9.984375 16.460938 9.617188 C 16.460938 9.246094 16.765625 8.945312 17.140625 8.945312 L 23.917969 8.945312 C 24.292969 8.945312 24.59375 9.246094 24.59375 9.617188 C 24.59375 9.984375 24.292969 10.285156 23.917969 10.285156 " fill-opacity="1" fill-rule="nonzero"/><path fill="#042b3b" d="M 12.394531 12.296875 C 12.214844 12.296875 12.042969 12.226562 11.917969 12.097656 L 10.5625 10.761719 C 10.296875 10.5 10.296875 10.074219 10.5625 9.8125 C 10.824219 9.550781 11.253906 9.550781 11.519531 9.8125 L 12.320312 10.605469 L 13.886719 8.546875 C 14.109375 8.25 14.535156 8.191406 14.835938 8.410156 C 15.136719 8.632812 15.195312 9.050781 14.972656 9.347656 L 12.9375 12.027344 C 12.820312 12.183594 12.640625 12.28125 12.441406 12.292969 C 12.425781 12.296875 12.410156 12.296875 12.394531 12.296875 " fill-opacity="1" fill-rule="nonzero"/><path fill="#042b3b" d="M 12.394531 21.671875 C 12.214844 21.671875 12.042969 21.601562 11.917969 21.472656 L 10.5625 20.136719 C 10.296875 19.875 10.296875 19.449219 10.5625 19.1875 C 10.824219 18.925781 11.253906 18.925781 11.519531 19.1875 L 12.320312 19.980469 L 13.886719 17.921875 C 14.109375 17.625 14.535156 17.566406 14.835938 17.785156 C 15.136719 18.007812 15.195312 18.425781 14.972656 18.722656 L 12.9375 21.402344 C 12.820312 21.558594 12.640625 21.65625 12.441406 21.667969 C 12.425781 21.671875 12.410156 21.671875 12.394531 21.671875 " fill-opacity="1" fill-rule="nonzero"/></svg>