<svg xmlns="http://www.w3.org/2000/svg" xmlns:xlink="http://www.w3.org/1999/xlink" width="60" zoomAndPan="magnify" viewBox="0 0 45 44.999999" height="60" preserveAspectRatio="xMidYMid meet" version="1.0"><defs><clipPath id="e177e7a8a4"><path d="M 3.636719 3.636719 L 41.136719 3.636719 L 41.136719 41.136719 L 3.636719 41.136719 Z M 3.636719 3.636719 " clip-rule="nonzero"/></clipPath></defs><rect x="-4.5" width="54" fill="#ffffff" y="-4.5" height="53.999999" fill-opacity="1"/><rect x="-4.5" width="54" fill="#ffffff" y="-4.5" height="53.999999" fill-opacity="1"/><g clip-path="url(#e177e7a8a4)"><path fill="#042b3b" d="M 4.53125 22.382812 C 4.53125 12.527344 12.519531 4.53125 22.382812 4.53125 C 32.25 4.53125 40.242188 12.527344 40.242188 22.382812 C 40.242188 32.25 32.25 40.242188 22.382812 40.242188 C 12.519531 40.242188 4.53125 32.25 4.53125 22.382812 Z M 3.636719 22.382812 C 3.636719 32.742188 12.027344 41.140625 22.382812 41.140625 C 32.742188 41.140625 41.140625 32.742188 41.140625 22.382812 C 41.140625 12.03125 32.742188 3.636719 22.382812 3.636719 C 12.027344 3.636719 3.636719 12.03125 3.636719 22.382812 " fill-opacity="1" fill-rule="nonzero"/></g><path fill="#042b3b" d="M 9.117188 14.734375 L 22.761719 21.140625 L 26.636719 19.179688 L 13.507812 12.890625 L 9.117188 14.734375 " fill-opacity="1" fill-rule="nonzero"/><path fill="#042b3b" d="M 24.902344 27.855469 L 28.203125 26.242188 L 28.234375 28.679688 L 24.917969 30.261719 Z M 24.902344 31.324219 L 28.203125 29.710938 L 28.234375 32.148438 L 24.917969 33.734375 Z M 29.429688 26.046875 L 34.910156 23.527344 C 35.019531 23.476562 35.148438 23.523438 35.199219 23.636719 L 35.238281 23.726562 L 35.28125 23.816406 C 35.328125 23.929688 35.28125 24.058594 35.171875 24.109375 L 29.691406 26.632812 C 29.582031 26.683594 29.453125 26.632812 29.402344 26.523438 L 29.359375 26.429688 L 29.320312 26.339844 C 29.269531 26.230469 29.316406 26.097656 29.429688 26.046875 Z M 29.429688 27.644531 L 34.910156 25.125 C 35.019531 25.074219 35.148438 25.121094 35.199219 25.234375 L 35.238281 25.324219 L 35.28125 25.414062 C 35.328125 25.527344 35.28125 25.65625 35.171875 25.707031 L 29.691406 28.226562 C 29.582031 28.277344 29.453125 28.230469 29.402344 28.121094 L 29.320312 27.9375 C 29.269531 27.824219 29.316406 27.695312 29.429688 27.644531 Z M 29.429688 29.347656 L 34.910156 26.828125 C 35.019531 26.777344 35.148438 26.828125 35.199219 26.9375 L 35.238281 27.027344 L 35.28125 27.117188 C 35.328125 27.230469 35.28125 27.359375 35.171875 27.410156 L 29.691406 29.933594 C 29.582031 29.984375 29.453125 29.933594 29.402344 29.824219 L 29.359375 29.734375 L 29.320312 29.640625 C 29.269531 29.53125 29.316406 29.398438 29.429688 29.347656 Z M 29.429688 31.078125 L 34.910156 28.554688 C 35.019531 28.503906 35.148438 28.554688 35.199219 28.664062 L 35.238281 28.753906 L 35.28125 28.847656 C 35.328125 28.957031 35.28125 29.089844 35.171875 29.140625 L 29.691406 31.660156 C 29.582031 31.710938 29.453125 31.660156 29.402344 31.550781 L 29.320312 31.371094 C 29.269531 31.257812 29.316406 31.128906 29.429688 31.078125 Z M 23.179688 21.953125 L 23.179688 35.800781 L 36.023438 29.722656 L 35.941406 15.492188 L 29.027344 18.996094 L 29.0625 22.941406 L 27.136719 23.957031 L 27.121094 19.960938 L 23.8125 21.632812 L 23.179688 21.953125 " fill-opacity="1" fill-rule="nonzero"/><path fill="#042b3b" d="M 13.835938 26.054688 L 14.628906 26.058594 L 14.644531 22.085938 C 14.644531 21.722656 14.941406 21.429688 15.304688 21.429688 C 15.671875 21.429688 15.964844 21.726562 15.964844 22.09375 L 15.949219 26.0625 L 16.746094 26.066406 C 17.25 26.066406 17.566406 26.613281 17.3125 27.054688 L 15.851562 29.597656 C 15.597656 30.039062 14.957031 30.039062 14.703125 29.59375 L 13.257812 27.039062 C 13.011719 26.597656 13.328125 26.054688 13.835938 26.054688 Z M 8.753906 15.574219 L 8.789062 29.847656 L 22.265625 35.75 L 22.265625 21.917969 L 21.726562 21.664062 L 8.753906 15.574219 " fill-opacity="1" fill-rule="nonzero"/><path fill="#042b3b" d="M 15.585938 12.019531 L 22.835938 8.972656 L 35.558594 14.664062 L 35.574219 14.671875 L 28.648438 18.183594 L 28.625 18.171875 L 15.585938 12.019531 " fill-opacity="1" fill-rule="nonzero"/></svg>