<svg xmlns="http://www.w3.org/2000/svg" xmlns:xlink="http://www.w3.org/1999/xlink" width="60" zoomAndPan="magnify" viewBox="0 0 45 44.999999" height="60" preserveAspectRatio="xMidYMid meet" version="1.0"><defs><clipPath id="c4e2646823"><path d="M 3.636719 3.636719 L 41.136719 3.636719 L 41.136719 41.136719 L 3.636719 41.136719 Z M 3.636719 3.636719 " clip-rule="nonzero"/></clipPath></defs><rect x="-4.5" width="54" fill="#ffffff" y="-4.5" height="53.999999" fill-opacity="1"/><rect x="-4.5" width="54" fill="#ffffff" y="-4.5" height="53.999999" fill-opacity="1"/><path fill="#042b3b" d="M 7.261719 9.761719 C 7.261719 8.429688 8.34375 7.34375 9.675781 7.34375 C 11.007812 7.34375 12.089844 8.429688 12.089844 9.761719 C 12.089844 11.09375 11.007812 12.175781 9.675781 12.175781 C 8.34375 12.175781 7.261719 11.09375 7.261719 9.761719 Z M 13.300781 9.761719 C 13.300781 7.761719 11.675781 6.136719 9.675781 6.136719 C 7.679688 6.136719 6.054688 7.761719 6.054688 9.761719 C 6.054688 11.757812 7.679688 13.382812 9.675781 13.382812 C 11.675781 13.382812 13.300781 11.757812 13.300781 9.761719 " fill-opacity="1" fill-rule="nonzero"/><path fill="#042b3b" d="M 37.882812 7.773438 L 37.027344 6.917969 L 36.171875 7.773438 L 37.027344 8.625 L 37.882812 7.773438 " fill-opacity="1" fill-rule="nonzero"/><path fill="#042b3b" d="M 34.464844 9.480469 L 35.320312 10.335938 L 36.171875 9.480469 L 35.320312 8.625 L 34.464844 9.480469 " fill-opacity="1" fill-rule="nonzero"/><path fill="#042b3b" d="M 32.800781 11.144531 L 33.652344 12 L 34.464844 11.1875 L 33.613281 10.335938 L 32.800781 11.144531 " fill-opacity="1" fill-rule="nonzero"/><g clip-path="url(#c4e2646823)"><path fill="#042b3b" d="M 39.871094 39.351562 C 39.871094 39.683594 39.597656 39.953125 39.265625 39.953125 L 29.605469 39.953125 C 29.269531 39.953125 29 39.683594 29 39.351562 L 29 30.894531 C 29 30.5625 29.269531 30.292969 29.605469 30.292969 L 31.414062 30.292969 L 31.414062 32.707031 L 37.453125 32.707031 L 37.453125 30.292969 L 39.265625 30.292969 C 39.597656 30.292969 39.871094 30.5625 39.871094 30.894531 Z M 24.992188 36.078125 C 26.058594 34.816406 26.941406 32.800781 27.542969 30.292969 L 27.902344 30.292969 C 27.835938 30.480469 27.792969 30.683594 27.792969 30.894531 L 27.792969 35.222656 C 26.886719 35.605469 25.953125 35.890625 24.992188 36.078125 Z M 16.753906 39.953125 L 10.070312 39.953125 C 7.191406 39.953125 4.84375 37.609375 4.84375 34.730469 L 4.84375 33.914062 L 8.699219 33.914062 L 9.90625 36.332031 L 21.726562 36.332031 C 21.035156 38.472656 19.015625 39.953125 16.753906 39.953125 Z M 8.46875 31.5 L 17.152344 31.5 L 18.964844 35.125 L 10.652344 35.125 L 9.445312 32.707031 L 8.46875 32.707031 Z M 7.863281 29.085938 L 17.527344 29.085938 C 17.859375 29.085938 18.128906 29.355469 18.128906 29.6875 C 18.128906 30.019531 17.859375 30.292969 17.527344 30.292969 L 7.863281 30.292969 C 7.53125 30.292969 7.261719 30.019531 7.261719 29.6875 C 7.261719 29.355469 7.53125 29.085938 7.863281 29.085938 Z M 8.484375 23.046875 L 16.332031 23.046875 C 16.355469 24.714844 16.484375 26.335938 16.714844 27.878906 L 9.578125 27.878906 C 8.921875 26.339844 8.554688 24.722656 8.484375 23.046875 Z M 4.84375 9.925781 L 4.84375 9.761719 C 4.84375 7.097656 7.011719 4.929688 9.675781 4.929688 C 12.339844 4.929688 14.507812 7.097656 14.507812 9.761719 L 14.507812 9.925781 C 14.507812 10.882812 14.226562 11.8125 13.695312 12.605469 L 10.113281 17.980469 C 9.917969 18.273438 9.433594 18.273438 9.238281 17.980469 L 5.65625 12.605469 C 5.125 11.8125 4.84375 10.882812 4.84375 9.925781 Z M 15.691406 10.261719 C 16.949219 9.570312 18.3125 9.078125 19.722656 8.808594 C 18.65625 10.070312 17.773438 12.082031 17.171875 14.59375 L 13.824219 14.59375 L 14.699219 13.277344 C 15.300781 12.375 15.628906 11.339844 15.691406 10.261719 Z M 30.128906 11.082031 L 27.003906 10.300781 L 26.339844 10.964844 C 25.941406 10.101562 25.503906 9.382812 25.03125 8.820312 C 26.875 9.179688 28.621094 9.90625 30.191406 10.984375 C 30.167969 11.019531 30.148438 11.050781 30.128906 11.082031 Z M 30.027344 5.105469 L 33.921875 6.402344 L 33.492188 6.832031 C 33.199219 7.121094 32.921875 7.417969 32.648438 7.722656 Z M 37.308594 5.535156 C 38.386719 5.535156 39.265625 6.410156 39.265625 7.492188 C 39.265625 8.015625 39.0625 8.507812 38.691406 8.875 L 37.113281 10.453125 C 35.105469 12.460938 32.765625 14.042969 30.160156 15.164062 C 29.902344 15.269531 29.605469 15.070312 29.605469 14.796875 C 29.605469 14.742188 29.617188 14.691406 29.636719 14.640625 C 30.753906 12.03125 32.335938 9.691406 34.34375 7.683594 L 35.921875 6.105469 C 36.292969 5.738281 36.785156 5.535156 37.308594 5.535156 Z M 39.695312 14.769531 L 37.078125 12.152344 C 37.378906 11.878906 37.679688 11.597656 37.96875 11.308594 L 38.398438 10.878906 Z M 32.632812 15.304688 L 33.164062 17.425781 L 32.789062 17.800781 L 31.765625 15.75 C 32.058594 15.605469 32.347656 15.460938 32.632812 15.304688 Z M 36.222656 21.839844 L 28.382812 21.839844 C 28.351562 19.714844 28.152344 17.664062 27.800781 15.800781 L 28.757812 15.800781 C 29.050781 16.164062 29.496094 16.402344 30.003906 16.402344 C 30.21875 16.402344 30.429688 16.359375 30.632812 16.273438 C 30.644531 16.269531 30.65625 16.261719 30.667969 16.257812 L 32.457031 19.839844 L 34.5 17.796875 L 33.71875 14.667969 C 33.75 14.652344 33.78125 14.628906 33.8125 14.609375 C 35.285156 16.753906 36.113281 19.230469 36.222656 21.839844 Z M 28.539062 14.132812 C 28.535156 14.140625 28.53125 14.152344 28.527344 14.164062 C 28.464844 14.300781 28.4375 14.445312 28.417969 14.59375 L 27.542969 14.59375 C 27.453125 14.210938 27.359375 13.847656 27.253906 13.488281 Z M 29.050781 13.035156 L 27 12.011719 L 27.371094 11.636719 L 29.496094 12.167969 C 29.339844 12.453125 29.191406 12.742188 29.050781 13.035156 Z M 22.355469 8.554688 C 23.429688 8.554688 24.535156 9.769531 25.421875 11.882812 L 24.960938 12.339844 L 25.75 12.734375 C 25.953125 13.316406 26.140625 13.9375 26.304688 14.59375 L 18.421875 14.59375 C 19.363281 10.839844 20.910156 8.554688 22.355469 8.554688 Z M 18.148438 15.800781 L 26.574219 15.800781 C 26.941406 17.648438 27.144531 19.703125 27.175781 21.839844 L 17.539062 21.839844 C 17.574219 19.605469 17.792969 17.570312 18.148438 15.800781 Z M 8.492188 21.839844 C 8.53125 20.949219 8.644531 20.070312 8.847656 19.210938 C 9.097656 19.347656 9.382812 19.421875 9.675781 19.421875 C 10.257812 19.421875 10.792969 19.136719 11.117188 18.652344 L 13.019531 15.800781 L 16.914062 15.800781 C 16.5625 17.625 16.355469 19.664062 16.324219 21.839844 Z M 19.226562 29.085938 C 19.023438 28.511719 18.542969 28.074219 17.945312 27.929688 C 17.699219 26.375 17.5625 24.738281 17.539062 23.046875 L 27.179688 23.046875 C 27.148438 25.277344 26.925781 27.3125 26.570312 29.085938 Z M 22.941406 36.207031 L 22.960938 35.125 L 20.316406 35.125 L 18.390625 31.269531 C 18.777344 31.058594 19.074219 30.710938 19.226562 30.292969 L 26.300781 30.292969 C 25.484375 33.546875 24.210938 35.695312 22.941406 36.207031 Z M 29.605469 29.085938 L 27.800781 29.085938 C 28.152344 27.257812 28.359375 25.21875 28.390625 23.046875 L 36.226562 23.046875 C 36.136719 25.164062 35.558594 27.234375 34.550781 29.085938 Z M 32.621094 30.292969 L 36.246094 30.292969 L 36.246094 31.5 L 32.621094 31.5 Z M 39.265625 29.085938 L 35.914062 29.085938 C 36.921875 27.027344 37.453125 24.75 37.453125 22.441406 C 37.453125 19.375 36.539062 16.453125 34.820312 13.941406 C 35.277344 13.621094 35.722656 13.289062 36.152344 12.9375 L 39.871094 16.652344 L 41.164062 15.359375 L 39.351562 9.925781 L 39.546875 9.730469 C 40.144531 9.132812 40.472656 8.339844 40.472656 7.492188 C 40.472656 5.746094 39.054688 4.328125 37.308594 4.328125 C 36.464844 4.328125 35.667969 4.652344 35.070312 5.253906 L 34.875 5.445312 L 29.441406 3.636719 L 28.144531 4.929688 L 31.859375 8.644531 C 31.507812 9.078125 31.175781 9.523438 30.859375 9.976562 C 28.347656 8.261719 25.425781 7.34375 22.355469 7.34375 C 20.023438 7.34375 17.722656 7.886719 15.648438 8.917969 C 15.234375 5.988281 12.71875 3.722656 9.675781 3.722656 C 6.34375 3.722656 3.636719 6.429688 3.636719 9.761719 L 3.636719 9.925781 C 3.636719 11.121094 3.988281 12.28125 4.652344 13.277344 L 7.894531 18.136719 C 7.476562 19.527344 7.261719 20.976562 7.261719 22.441406 C 7.261719 24.324219 7.601562 26.148438 8.269531 27.878906 L 7.863281 27.878906 C 6.863281 27.878906 6.054688 28.6875 6.054688 29.6875 C 6.054688 30.472656 6.558594 31.140625 7.261719 31.390625 L 7.261719 32.707031 L 3.636719 32.707031 L 3.636719 34.730469 C 3.636719 38.277344 6.523438 41.160156 10.070312 41.160156 L 16.753906 41.160156 C 19.234375 41.160156 21.476562 39.714844 22.539062 37.535156 C 24.355469 37.511719 26.117188 37.175781 27.792969 36.527344 L 27.792969 39.351562 C 27.792969 40.347656 28.605469 41.160156 29.605469 41.160156 L 39.265625 41.160156 C 40.265625 41.160156 41.078125 40.347656 41.078125 39.351562 L 41.078125 30.894531 C 41.078125 29.894531 40.265625 29.085938 39.265625 29.085938 " fill-opacity="1" fill-rule="nonzero"/></g><path fill="#042b3b" d="M 37.453125 38.746094 L 38.660156 38.746094 L 38.660156 37.539062 L 37.453125 37.539062 L 37.453125 38.746094 " fill-opacity="1" fill-rule="nonzero"/><path fill="#042b3b" d="M 35.039062 38.746094 L 36.246094 38.746094 L 36.246094 37.539062 L 35.039062 37.539062 L 35.039062 38.746094 " fill-opacity="1" fill-rule="nonzero"/><path fill="#042b3b" d="M 14.507812 32.707031 L 13.300781 32.707031 L 13.300781 33.914062 L 14.507812 33.914062 L 14.507812 32.707031 " fill-opacity="1" fill-rule="nonzero"/><path fill="#042b3b" d="M 16.921875 32.707031 L 15.714844 32.707031 L 15.714844 33.914062 L 16.921875 33.914062 L 16.921875 32.707031 " fill-opacity="1" fill-rule="nonzero"/><path fill="#042b3b" d="M 12.089844 32.707031 L 10.882812 32.707031 L 10.882812 33.914062 L 12.089844 33.914062 L 12.089844 32.707031 " fill-opacity="1" fill-rule="nonzero"/><path fill="#042b3b" d="M 19.339844 25.460938 L 20.546875 25.460938 L 20.546875 24.253906 L 19.339844 24.253906 L 19.339844 25.460938 " fill-opacity="1" fill-rule="nonzero"/><path fill="#042b3b" d="M 24.167969 24.253906 L 24.167969 25.460938 L 25.375 25.460938 L 25.375 24.253906 L 24.167969 24.253906 " fill-opacity="1" fill-rule="nonzero"/><path fill="#042b3b" d="M 21.753906 25.460938 L 22.960938 25.460938 L 22.960938 24.253906 L 21.753906 24.253906 L 21.753906 25.460938 " fill-opacity="1" fill-rule="nonzero"/><path fill="#042b3b" d="M 24.167969 19.421875 L 24.167969 20.628906 L 25.375 20.628906 L 25.375 19.421875 L 24.167969 19.421875 " fill-opacity="1" fill-rule="nonzero"/><path fill="#042b3b" d="M 21.753906 20.628906 L 22.960938 20.628906 L 22.960938 19.421875 L 21.753906 19.421875 L 21.753906 20.628906 " fill-opacity="1" fill-rule="nonzero"/><path fill="#042b3b" d="M 19.339844 20.628906 L 20.546875 20.628906 L 20.546875 19.421875 L 19.339844 19.421875 L 19.339844 20.628906 " fill-opacity="1" fill-rule="nonzero"/></svg>