<svg xmlns="http://www.w3.org/2000/svg" xmlns:xlink="http://www.w3.org/1999/xlink" width="60" zoomAndPan="magnify" viewBox="0 0 45 44.999999" height="60" preserveAspectRatio="xMidYMid meet" version="1.0"><defs><clipPath id="21d663f272"><path d="M 3.171875 3.839844 L 42.171875 3.839844 L 42.171875 41.339844 L 3.171875 41.339844 Z M 3.171875 3.839844 " clip-rule="nonzero"/></clipPath></defs><rect x="-4.5" width="54" fill="#ffffff" y="-4.5" height="53.999999" fill-opacity="1"/><rect x="-4.5" width="54" fill="#f4f6f8" y="-4.5" height="53.999999" fill-opacity="1"/><g clip-path="url(#21d663f272)"><path fill="#042b3b" d="M 42.164062 38.109375 C 42.164062 38.457031 41.886719 38.734375 41.539062 38.734375 C 41.167969 38.734375 40.851562 38.839844 40.5625 39.015625 C 40.242188 39.210938 39.945312 39.496094 39.648438 39.828125 C 39.304688 40.210938 38.921875 40.574219 38.46875 40.851562 C 37.988281 41.148438 37.445312 41.335938 36.824219 41.335938 C 36.203125 41.335938 35.671875 41.164062 35.195312 40.871094 C 34.75 40.601562 34.363281 40.234375 33.996094 39.824219 C 33.722656 39.515625 33.421875 39.230469 33.097656 39.03125 C 32.804688 38.851562 32.476562 38.734375 32.105469 38.734375 C 31.734375 38.734375 31.417969 38.839844 31.128906 39.015625 C 30.808594 39.210938 30.511719 39.496094 30.214844 39.824219 C 29.875 40.207031 29.488281 40.570312 29.035156 40.851562 C 28.554688 41.148438 28.011719 41.335938 27.390625 41.335938 C 26.769531 41.335938 26.242188 41.160156 25.761719 40.871094 C 25.316406 40.597656 24.929688 40.234375 24.5625 39.824219 C 24.289062 39.515625 23.988281 39.230469 23.664062 39.03125 C 23.371094 38.847656 23.042969 38.734375 22.671875 38.734375 C 22.304688 38.734375 21.984375 38.839844 21.695312 39.015625 C 21.371094 39.210938 21.074219 39.496094 20.78125 39.824219 C 20.4375 40.207031 20.054688 40.570312 19.601562 40.851562 C 19.121094 41.148438 18.578125 41.335938 17.957031 41.335938 C 17.335938 41.335938 16.804688 41.160156 16.328125 40.871094 C 15.882812 40.597656 15.496094 40.234375 15.128906 39.824219 C 14.855469 39.515625 14.554688 39.230469 14.230469 39.03125 C 13.9375 38.847656 13.609375 38.734375 13.238281 38.734375 C 12.867188 38.734375 12.550781 38.839844 12.261719 39.015625 C 11.9375 39.210938 11.640625 39.496094 11.347656 39.824219 C 11.007812 40.207031 10.621094 40.570312 10.167969 40.851562 C 9.6875 41.148438 9.144531 41.335938 8.523438 41.335938 C 7.902344 41.335938 7.371094 41.160156 6.894531 40.871094 C 6.449219 40.597656 6.0625 40.234375 5.695312 39.824219 C 5.421875 39.515625 5.121094 39.230469 4.796875 39.03125 C 4.503906 38.847656 4.175781 38.734375 3.804688 38.734375 C 3.460938 38.734375 3.179688 38.453125 3.179688 38.109375 C 3.179688 37.765625 3.460938 37.484375 3.804688 37.484375 C 4.425781 37.484375 4.96875 37.675781 5.453125 37.972656 C 5.902344 38.25 6.289062 38.613281 6.632812 38.996094 C 6.925781 39.324219 7.226562 39.613281 7.546875 39.808594 C 7.832031 39.980469 8.152344 40.085938 8.523438 40.085938 C 8.890625 40.085938 9.21875 39.972656 9.511719 39.792969 C 9.835938 39.589844 10.136719 39.304688 10.414062 38.996094 C 10.785156 38.585938 11.171875 38.21875 11.613281 37.953125 C 12.089844 37.660156 12.621094 37.484375 13.238281 37.484375 C 13.859375 37.484375 14.402344 37.675781 14.886719 37.972656 C 15.335938 38.25 15.722656 38.613281 16.066406 38.996094 C 16.359375 39.328125 16.660156 39.613281 16.980469 39.808594 C 17.265625 39.984375 17.585938 40.089844 17.957031 40.089844 C 18.324219 40.089844 18.652344 39.972656 18.945312 39.792969 C 19.273438 39.59375 19.570312 39.304688 19.847656 38.996094 L 19.851562 38.996094 C 20.21875 38.585938 20.605469 38.222656 21.046875 37.953125 C 21.523438 37.664062 22.054688 37.488281 22.675781 37.488281 C 23.296875 37.488281 23.839844 37.675781 24.320312 37.972656 C 24.773438 38.25 25.15625 38.613281 25.5 38.996094 C 25.796875 39.328125 26.09375 39.613281 26.414062 39.808594 C 26.703125 39.984375 27.019531 40.089844 27.390625 40.089844 C 27.761719 40.089844 28.085938 39.972656 28.382812 39.792969 C 28.707031 39.59375 29.003906 39.308594 29.28125 39 C 29.648438 38.589844 30.03125 38.226562 30.480469 37.953125 C 30.957031 37.664062 31.488281 37.488281 32.105469 37.488281 C 32.726562 37.488281 33.269531 37.675781 33.753906 37.972656 C 34.203125 38.253906 34.589844 38.617188 34.933594 39 C 35.226562 39.328125 35.527344 39.617188 35.847656 39.808594 C 36.132812 39.984375 36.453125 40.089844 36.824219 40.089844 C 37.191406 40.089844 37.519531 39.976562 37.8125 39.792969 C 38.136719 39.59375 38.4375 39.308594 38.714844 39 C 39.082031 38.589844 39.46875 38.226562 39.914062 37.953125 C 40.390625 37.664062 40.921875 37.488281 41.539062 37.488281 C 41.886719 37.488281 42.164062 37.765625 42.164062 38.109375 Z M 3.179688 31.5625 C 3.179688 31.21875 3.460938 30.9375 3.804688 30.9375 C 4.425781 30.9375 4.96875 31.125 5.453125 31.421875 C 5.902344 31.703125 6.289062 32.066406 6.632812 32.449219 C 6.925781 32.777344 7.226562 33.066406 7.546875 33.257812 C 7.832031 33.433594 8.152344 33.539062 8.523438 33.539062 C 8.890625 33.539062 9.21875 33.425781 9.511719 33.242188 C 9.742188 33.101562 9.960938 32.914062 10.167969 32.710938 L 5.839844 20.246094 C 5.730469 19.929688 5.894531 19.585938 6.207031 19.464844 L 10.632812 17.757812 L 10.632812 11.992188 C 10.632812 11.648438 10.914062 11.367188 11.257812 11.367188 L 12.972656 11.367188 L 12.972656 9.101562 C 12.972656 8.757812 13.253906 8.476562 13.601562 8.476562 L 20.445312 8.476562 L 20.445312 4.464844 C 20.445312 4.121094 20.726562 3.839844 21.070312 3.839844 L 24.273438 3.839844 C 24.617188 3.839844 24.898438 4.121094 24.898438 4.464844 L 24.898438 8.476562 L 31.742188 8.476562 C 32.089844 8.476562 32.371094 8.757812 32.371094 9.101562 L 32.371094 11.367188 L 34.085938 11.367188 C 34.429688 11.367188 34.710938 11.648438 34.710938 11.992188 L 34.710938 17.714844 L 39.292969 19.460938 C 39.617188 19.585938 39.78125 19.945312 39.65625 20.265625 L 35.296875 32.828125 C 35.476562 32.996094 35.65625 33.144531 35.847656 33.257812 C 36.132812 33.433594 36.453125 33.539062 36.824219 33.539062 C 37.191406 33.539062 37.519531 33.425781 37.8125 33.242188 C 38.136719 33.042969 38.4375 32.757812 38.714844 32.449219 C 39.078125 32.039062 39.464844 31.675781 39.910156 31.402344 C 40.390625 31.113281 40.917969 30.9375 41.539062 30.9375 C 41.886719 30.9375 42.164062 31.21875 42.164062 31.5625 C 42.164062 31.90625 41.886719 32.1875 41.539062 32.1875 C 41.167969 32.1875 40.851562 32.292969 40.5625 32.464844 C 40.242188 32.660156 39.945312 32.949219 39.648438 33.277344 C 39.304688 33.660156 38.921875 34.023438 38.46875 34.300781 C 37.988281 34.597656 37.445312 34.789062 36.824219 34.789062 C 36.203125 34.789062 35.671875 34.613281 35.195312 34.324219 C 34.75 34.050781 34.363281 33.6875 33.996094 33.277344 C 33.722656 32.96875 33.421875 32.683594 33.097656 32.480469 C 32.800781 32.300781 32.476562 32.1875 32.105469 32.1875 C 31.734375 32.1875 31.417969 32.292969 31.128906 32.464844 C 30.808594 32.660156 30.511719 32.949219 30.214844 33.277344 C 29.875 33.660156 29.488281 34.023438 29.035156 34.300781 C 28.554688 34.597656 28.011719 34.789062 27.390625 34.789062 C 26.769531 34.789062 26.242188 34.613281 25.761719 34.324219 C 25.316406 34.050781 24.929688 33.6875 24.5625 33.277344 C 24.289062 32.96875 23.988281 32.683594 23.664062 32.480469 C 23.410156 32.328125 23.136719 32.222656 22.828125 32.195312 C 22.78125 32.207031 22.726562 32.214844 22.671875 32.214844 C 22.617188 32.214844 22.566406 32.207031 22.515625 32.195312 C 22.210938 32.21875 21.941406 32.316406 21.695312 32.464844 C 21.371094 32.664062 21.074219 32.949219 20.78125 33.277344 C 20.4375 33.660156 20.054688 34.023438 19.601562 34.300781 C 19.121094 34.597656 18.578125 34.789062 17.957031 34.789062 C 17.335938 34.789062 16.804688 34.613281 16.328125 34.320312 C 15.882812 34.050781 15.496094 33.6875 15.128906 33.277344 C 14.855469 32.96875 14.554688 32.679688 14.230469 32.480469 C 13.933594 32.300781 13.609375 32.183594 13.238281 32.183594 C 12.867188 32.183594 12.550781 32.289062 12.261719 32.464844 C 11.9375 32.660156 11.640625 32.949219 11.347656 33.273438 C 11.34375 33.277344 11.34375 33.277344 11.34375 33.277344 C 11.339844 33.28125 11.339844 33.28125 11.335938 33.285156 C 11 33.664062 10.617188 34.023438 10.167969 34.300781 C 9.6875 34.597656 9.144531 34.785156 8.523438 34.785156 C 7.902344 34.785156 7.371094 34.609375 6.894531 34.320312 C 6.449219 34.050781 6.0625 33.6875 5.695312 33.273438 C 5.421875 32.964844 5.121094 32.679688 4.796875 32.480469 C 4.5 32.300781 4.175781 32.183594 3.804688 32.183594 C 3.460938 32.1875 3.179688 31.90625 3.179688 31.5625 Z M 38.285156 20.410156 L 33.886719 18.730469 C 33.867188 18.726562 33.851562 18.71875 33.835938 18.710938 L 23.300781 14.691406 L 23.300781 31.003906 C 23.667969 31.085938 24.007812 31.230469 24.320312 31.421875 C 24.769531 31.703125 25.15625 32.066406 25.5 32.449219 C 25.792969 32.777344 26.09375 33.066406 26.414062 33.257812 C 26.699219 33.433594 27.019531 33.539062 27.390625 33.539062 C 27.757812 33.539062 28.085938 33.425781 28.378906 33.242188 C 28.703125 33.042969 29.003906 32.757812 29.28125 32.449219 C 29.648438 32.039062 30.03125 31.675781 30.476562 31.402344 C 30.957031 31.113281 31.484375 30.9375 32.105469 30.9375 C 32.726562 30.9375 33.269531 31.125 33.753906 31.421875 C 33.953125 31.546875 34.140625 31.6875 34.316406 31.839844 Z M 21.699219 8.476562 L 23.644531 8.476562 L 23.644531 5.089844 L 21.699219 5.089844 Z M 14.226562 11.367188 L 31.117188 11.367188 L 31.117188 9.726562 L 14.226562 9.726562 Z M 11.886719 17.273438 L 22.40625 13.21875 C 22.488281 13.179688 22.578125 13.160156 22.671875 13.160156 C 22.765625 13.160156 22.855469 13.179688 22.9375 13.21875 L 33.457031 17.234375 L 33.457031 12.617188 L 11.886719 12.617188 Z M 7.21875 20.410156 L 11.148438 31.734375 C 11.296875 31.613281 11.449219 31.5 11.613281 31.402344 C 12.089844 31.113281 12.621094 30.9375 13.238281 30.9375 C 13.859375 30.9375 14.402344 31.125 14.886719 31.421875 C 15.335938 31.703125 15.722656 32.066406 16.066406 32.449219 C 16.359375 32.777344 16.660156 33.066406 16.980469 33.257812 C 17.265625 33.433594 17.585938 33.539062 17.957031 33.539062 C 18.324219 33.539062 18.652344 33.425781 18.945312 33.242188 C 19.273438 33.042969 19.570312 32.757812 19.847656 32.449219 L 19.851562 32.449219 C 20.21875 32.039062 20.605469 31.671875 21.046875 31.402344 C 21.355469 31.214844 21.6875 31.078125 22.046875 31 L 22.046875 14.691406 L 11.527344 18.746094 C 11.496094 18.761719 11.46875 18.773438 11.4375 18.78125 Z M 27.917969 19.078125 C 27.570312 19.078125 27.289062 19.355469 27.289062 19.699219 L 27.289062 19.742188 C 27.289062 20.085938 27.570312 20.367188 27.917969 20.367188 C 28.261719 20.367188 28.542969 20.085938 28.542969 19.742188 L 28.542969 19.699219 C 28.542969 19.355469 28.261719 19.078125 27.917969 19.078125 Z M 30.523438 20.054688 C 30.179688 20.054688 29.898438 20.335938 29.898438 20.679688 L 29.898438 20.722656 C 29.898438 21.066406 30.179688 21.34375 30.523438 21.34375 C 30.871094 21.34375 31.152344 21.066406 31.152344 20.722656 L 31.152344 20.679688 C 31.152344 20.335938 30.871094 20.054688 30.523438 20.054688 Z M 33.132812 21.078125 C 32.789062 21.078125 32.507812 21.355469 32.507812 21.703125 L 32.507812 21.742188 C 32.507812 22.085938 32.789062 22.367188 33.132812 22.367188 C 33.480469 22.367188 33.761719 22.085938 33.761719 21.742188 L 33.761719 21.703125 C 33.761719 21.355469 33.480469 21.078125 33.132812 21.078125 Z M 17.429688 20.367188 C 17.773438 20.367188 18.054688 20.085938 18.054688 19.742188 L 18.054688 19.699219 C 18.054688 19.355469 17.773438 19.078125 17.429688 19.078125 C 17.082031 19.078125 16.800781 19.355469 16.800781 19.699219 L 16.800781 19.742188 C 16.800781 20.085938 17.082031 20.367188 17.429688 20.367188 Z M 14.820312 21.34375 C 15.164062 21.34375 15.445312 21.066406 15.445312 20.722656 L 15.445312 20.679688 C 15.445312 20.335938 15.164062 20.054688 14.820312 20.054688 C 14.472656 20.054688 14.191406 20.335938 14.191406 20.679688 L 14.191406 20.722656 C 14.191406 21.066406 14.472656 21.34375 14.820312 21.34375 Z M 12.210938 22.367188 C 12.554688 22.367188 12.835938 22.085938 12.835938 21.742188 L 12.835938 21.703125 C 12.835938 21.355469 12.554688 21.078125 12.210938 21.078125 C 11.863281 21.078125 11.582031 21.355469 11.582031 21.703125 L 11.582031 21.742188 C 11.582031 22.085938 11.863281 22.367188 12.210938 22.367188 Z M 12.210938 22.367188 " fill-opacity="1" fill-rule="nonzero"/></g></svg>